<svg xmlns="http://www.w3.org/2000/svg" xmlns:xlink="http://www.w3.org/1999/xlink" width="500" zoomAndPan="magnify" viewBox="0 0 375 374.999991" height="500" preserveAspectRatio="xMidYMid meet" version="1.0"><defs><g/><clipPath id="dd0255abba"><path d="M 144.882812 140.148438 L 230.382812 140.148438 L 230.382812 234.648438 L 144.882812 234.648438 Z M 144.882812 140.148438 " clip-rule="nonzero"/></clipPath></defs><g clip-path="url(#dd0255abba)"><path fill="#f9ffd4" d="M 193.5625 150.59375 C 193.667969 147.984375 194.066406 145.402344 192.792969 142.957031 C 192.171875 141.769531 190.558594 139.585938 188.992188 140.300781 C 186.921875 141.238281 185.628906 144.621094 185.328125 146.65625 C 184.996094 148.886719 185.246094 151.015625 185.617188 153.171875 C 183.007812 151.824219 179.589844 151.285156 176.644531 150.59375 C 173.027344 149.742188 174.429688 155.164062 174.417969 157.222656 C 170.421875 156.554688 166.414062 156.308594 162.890625 158.667969 C 156.039062 163.257812 150.933594 170.738281 147.660156 178.117188 C 145.609375 182.746094 144.210938 188.398438 145.21875 193.464844 C 146.132812 198.070312 149.945312 202.515625 153.460938 205.484375 C 156.804688 208.308594 160.257812 210.832031 163.742188 213.460938 C 167.382812 216.207031 167.652344 221.539062 168.074219 225.824219 C 168.195312 227.039062 168.246094 228.261719 168.324219 229.480469 C 168.378906 230.304688 168.148438 231.679688 168.535156 232.449219 C 169.34375 234.0625 172.082031 233.621094 173.632812 233.742188 C 180.414062 234.265625 187.183594 233.949219 193.972656 234.117188 C 197.664062 234.210938 201.378906 234.832031 205.054688 234.578125 C 206.203125 234.5 207.480469 234.441406 208.554688 233.992188 C 210.4375 233.207031 210.476562 230.882812 210.820312 229.09375 C 211.539062 225.355469 212.222656 221.417969 211.875 217.609375 C 211.679688 215.484375 211.890625 214.429688 213.339844 212.777344 C 214.53125 211.417969 215.921875 210.453125 217.359375 209.386719 C 222.4375 205.625 230.636719 200.738281 230.382812 193.515625 C 230.242188 189.613281 230.304688 185.6875 230.09375 181.792969 C 229.816406 176.648438 226.539062 173.601562 223.257812 169.863281 C 219.988281 166.148438 217.589844 161.449219 213.410156 158.585938 C 211.476562 157.257812 209.402344 156.230469 207.007812 156.042969 C 205.113281 155.894531 203.453125 157.296875 201.695312 157.140625 C 202.335938 155.597656 202.769531 154.375 202.832031 152.648438 C 202.910156 150.550781 202.597656 150.226562 200.496094 149.996094 C 198.078125 149.734375 194.980469 150.011719 193.5625 150.59375 Z M 193.5625 150.59375 " fill-opacity="1" fill-rule="nonzero"/></g><path fill="#b7ce52" d="M 190.230469 152.496094 C 189.722656 152.726562 188.734375 154.90625 187.941406 154.523438 C 187.265625 154.195312 188.027344 151.613281 187.652344 150.859375 C 187.492188 150.535156 187.15625 150.363281 187.039062 150.023438 C 186.90625 149.652344 187.023438 148.976562 187.074219 148.578125 C 187.222656 147.46875 187.355469 146.253906 187.703125 145.1875 C 187.941406 144.453125 188.085938 143.207031 188.71875 142.679688 C 189.492188 142.03125 190.253906 143.253906 190.5625 144.007812 C 191.804688 147.019531 190.605469 150.320312 190.230469 152.496094 Z M 190.230469 152.496094 " fill-opacity="1" fill-rule="nonzero"/><path fill="#b7ce52" d="M 194.230469 154.449219 C 192.378906 155.378906 190.054688 157.109375 188.832031 158.875 C 186.59375 162.105469 191.625 161.324219 193.320312 160.789062 C 194.445312 160.4375 195.550781 159.898438 196.640625 159.445312 C 197.574219 159.054688 198.613281 158.726562 199.265625 157.90625 C 199.976562 157.011719 200.167969 155.851562 200.71875 154.878906 C 201.128906 154.148438 201.613281 153.601562 201.097656 152.855469 C 199.609375 150.71875 194.835938 153.605469 194.230469 154.449219 Z M 194.230469 154.449219 " fill-opacity="1" fill-rule="nonzero"/><path fill="#b7ce52" d="M 199.207031 171.484375 C 197.722656 171.582031 196.246094 172.886719 195.042969 173.683594 C 193.855469 174.464844 192.785156 175.308594 191.742188 176.28125 C 190.558594 177.382812 189.246094 178.914062 188.875 180.414062 C 188.679688 181.203125 188.320312 182.167969 188.285156 182.984375 C 188.257812 183.671875 189.121094 184.386719 189.773438 184.789062 C 191.132812 185.628906 193.570312 185.003906 194.996094 184.527344 C 197.621094 183.644531 198.910156 181.9375 200.320312 179.738281 C 201.859375 177.335938 202.648438 175.082031 202.960938 172.253906 C 203.050781 171.433594 203.152344 170.773438 202.332031 170.363281 C 201.691406 170.042969 201.3125 170.246094 200.734375 170.585938 C 200.003906 171.015625 198.917969 172.507812 198.078125 172.460938 " fill-opacity="1" fill-rule="nonzero"/><path fill="#b7ce52" d="M 198.453125 173.210938 C 198.328125 173.378906 198.273438 173.613281 198.277344 173.792969 C 199.863281 174.117188 202.664062 171.53125 200.3125 170.707031 C 198.816406 170.179688 197.421875 171.777344 196.945312 172.910156 " fill-opacity="1" fill-rule="nonzero"/><path fill="#b7ce52" d="M 187.511719 160.304688 C 187.550781 161.542969 187.765625 162.324219 186.527344 162.992188 C 185.558594 163.515625 184.742188 163.171875 183.742188 163.011719 C 182.441406 162.808594 181.792969 162.667969 180.726562 161.859375 C 179.859375 161.203125 178.859375 160.679688 177.945312 160.113281 C 176.855469 159.445312 176.457031 158.722656 176.214844 157.449219 C 175.964844 156.152344 175.851562 154.679688 175.984375 153.359375 C 176.105469 152.1875 176.53125 151.988281 177.628906 152.269531 C 178.730469 152.558594 179.894531 152.699219 180.953125 153.171875 C 182.335938 153.789062 183.664062 154.65625 184.800781 155.652344 C 185.777344 156.511719 188.511719 158.820312 187.515625 160.304688 Z M 187.511719 160.304688 " fill-opacity="1" fill-rule="nonzero"/><path fill="#b7ce52" d="M 186.457031 175.539062 C 187.050781 175.785156 187.300781 177.761719 187.445312 178.386719 C 187.613281 179.136719 187.753906 179.945312 187.816406 180.710938 C 187.910156 181.875 187.558594 182.320312 186.4375 182.652344 C 183.78125 183.429688 182.527344 180.90625 180.347656 180.121094 C 177.488281 179.089844 176.59375 175.433594 175.914062 172.839844 C 175.476562 171.175781 174.140625 166.398438 177.414062 167.75 C 179.148438 168.460938 180.628906 169.71875 182.066406 170.882812 C 182.808594 171.484375 183.515625 172.167969 184.148438 172.875 C 184.78125 173.585938 186.957031 175.222656 186.457031 175.539062 Z M 186.457031 175.539062 " fill-opacity="1" fill-rule="nonzero"/><path fill="#b7ce52" d="M 183.363281 181.09375 C 183.398438 180.101562 182.066406 179.296875 181.261719 179.058594 C 181.425781 180.957031 184.648438 182.863281 186.382812 183.332031 C 189.066406 184.054688 186.046875 180.476562 185.550781 179.742188 " fill-opacity="1" fill-rule="nonzero"/><path fill="#b7ce52" d="M 184.042969 176.289062 C 184.371094 176.769531 185.128906 177.1875 185.726562 176.984375 C 186.121094 175.503906 184.582031 173.578125 183.890625 172.355469 C 183.328125 171.355469 180.589844 169.230469 179.816406 170.882812 " fill-opacity="1" fill-rule="nonzero"/><path fill="#084734" d="M 188.28125 219.898438 C 187.953125 216.140625 188 212.773438 187.539062 209.4375 C 187.441406 208.730469 187.449219 208.003906 187.433594 207.285156 C 187.414062 206.484375 187.433594 205.683594 187.425781 204.886719 C 187.417969 202.964844 187.316406 201.039062 187.695312 199.144531 C 187.882812 198.21875 187.65625 197.363281 187.195312 196.613281 C 186.234375 195.046875 185.339844 193.4375 184.089844 192.054688 C 183.070312 190.925781 182.136719 189.71875 181.191406 188.523438 C 180.789062 188.015625 180.335938 187.585938 179.816406 187.195312 C 177.597656 185.523438 175.054688 184.578125 172.402344 183.867188 C 171.628906 183.660156 170.964844 183.910156 170.460938 184.511719 C 169.433594 185.734375 168.949219 187.097656 169.21875 188.730469 C 169.484375 190.359375 170.207031 191.757812 171.136719 193.078125 C 171.320312 193.339844 171.539062 193.578125 171.753906 193.816406 C 173.761719 196.007812 175.421875 198.46875 177.234375 200.8125 C 177.328125 200.9375 177.421875 201.089844 177.445312 201.238281 C 177.472656 201.375 177.445312 201.566406 177.359375 201.65625 C 177.277344 201.738281 177.019531 201.789062 176.957031 201.734375 C 176.613281 201.402344 176.273438 201.058594 175.996094 200.675781 C 174.390625 198.472656 172.796875 196.269531 170.957031 194.246094 C 170.371094 193.601562 169.90625 192.828125 169.476562 192.066406 C 168.382812 190.113281 167.871094 188.058594 168.605469 185.847656 C 168.746094 185.425781 168.671875 185.046875 168.386719 184.734375 C 167.578125 183.847656 166.761719 182.972656 165.796875 182.234375 C 164.972656 181.601562 164.207031 180.890625 163.4375 180.1875 C 163.085938 179.863281 162.78125 179.484375 162.476562 179.117188 C 161.667969 178.144531 161.601562 177.140625 162.199219 176.007812 C 163.179688 174.160156 164.332031 172.4375 165.65625 170.824219 C 166.878906 169.339844 168.117188 167.867188 169.292969 166.34375 C 170.125 165.269531 170.875 164.132812 171.636719 163.003906 C 171.855469 162.675781 172.03125 162.300781 172.152344 161.925781 C 172.480469 160.90625 172.183594 160.042969 171.417969 159.320312 C 171.113281 159.03125 170.738281 158.898438 170.324219 158.886719 C 169.667969 158.867188 169.058594 159.035156 168.46875 159.324219 C 166.582031 160.253906 164.816406 161.355469 163.421875 162.949219 C 161.464844 165.179688 159.527344 167.421875 157.582031 169.660156 C 157.265625 170.019531 156.957031 170.390625 156.613281 170.730469 C 154.953125 172.371094 153.605469 174.265625 152.175781 176.097656 C 151.460938 177.011719 151 178.007812 150.808594 179.121094 C 150.164062 182.910156 149.601562 186.707031 149.742188 190.570312 C 149.773438 191.367188 149.804688 192.167969 149.871094 192.964844 C 149.941406 193.785156 150.269531 194.511719 150.851562 195.105469 C 151.585938 195.84375 152.328125 196.578125 153.074219 197.304688 C 155.085938 199.261719 157.09375 201.21875 158.929688 203.351562 C 160.929688 205.671875 163.273438 207.605469 166.035156 209.003906 C 167.46875 209.730469 168.472656 210.816406 168.871094 212.394531 C 169.101562 213.324219 169.394531 214.253906 169.496094 215.199219 C 169.925781 219.257812 170.296875 223.320312 170.347656 227.402344 C 170.351562 227.621094 170.21875 227.84375 170.121094 228.054688 C 170.101562 228.097656 169.972656 228.105469 169.898438 228.097656 C 169.828125 228.089844 169.726562 228.054688 169.707031 228.007812 C 169.617188 227.796875 169.503906 227.578125 169.488281 227.355469 C 169.316406 224.640625 169.179688 221.925781 168.992188 219.214844 C 168.898438 217.859375 168.765625 216.5 168.570312 215.15625 C 168.429688 214.214844 168.1875 213.28125 167.925781 212.359375 C 167.605469 211.226562 166.878906 210.390625 165.804688 209.882812 C 164.855469 209.433594 163.992188 208.863281 163.132812 208.269531 C 161.398438 207.078125 159.855469 205.679688 158.464844 204.125 C 156.433594 201.847656 154.269531 199.707031 152.066406 197.597656 C 151.660156 197.210938 151.28125 196.792969 150.859375 196.421875 C 149.65625 195.355469 148.996094 194.039062 148.925781 192.433594 C 148.890625 191.714844 148.828125 190.996094 148.820312 190.277344 C 148.800781 187.390625 149.023438 184.527344 149.53125 181.683594 C 149.703125 180.738281 149.808594 179.785156 149.972656 178.839844 C 150.175781 177.632812 150.664062 176.5625 151.441406 175.601562 C 152.75 173.980469 153.980469 172.304688 155.390625 170.761719 C 157.773438 168.164062 160.046875 165.464844 162.339844 162.789062 C 163.992188 160.863281 166.046875 159.496094 168.320312 158.429688 C 168.683594 158.257812 169.070312 158.121094 169.460938 158.035156 C 170.679688 157.761719 171.695312 158.152344 172.449219 159.121094 C 173.246094 160.148438 173.382812 161.320312 172.890625 162.519531 C 172.683594 163.03125 172.351562 163.5 172.054688 163.972656 C 170.574219 166.367188 168.695312 168.457031 166.929688 170.636719 C 165.570312 172.320312 164.222656 174.007812 163.230469 175.945312 C 162.464844 177.441406 162.484375 177.847656 163.648438 179.148438 C 164.074219 179.625 164.527344 180.085938 165.027344 180.480469 C 166.410156 181.582031 167.742188 182.738281 168.949219 184.027344 C 169.21875 184.316406 169.386719 184.300781 169.75 183.980469 C 169.988281 183.765625 170.210938 183.535156 170.460938 183.339844 C 171.074219 182.855469 171.804688 182.734375 172.519531 182.941406 C 175.226562 183.722656 177.851562 184.703125 180.183594 186.335938 C 180.984375 186.894531 181.613281 187.621094 182.199219 188.386719 C 183.703125 190.359375 185.449219 192.140625 186.839844 194.203125 C 186.898438 194.292969 187.121094 194.277344 187.269531 194.289062 C 187.296875 194.289062 187.355469 194.175781 187.355469 194.113281 C 187.34375 192.675781 187.355469 191.238281 187.304688 189.800781 C 187.242188 187.882812 187.128906 185.964844 187.046875 184.050781 C 187.023438 183.582031 186.917969 183.496094 186.289062 183.457031 C 184.480469 183.339844 182.859375 182.675781 181.398438 181.648438 C 180.546875 181.050781 179.769531 180.34375 178.976562 179.667969 C 178.363281 179.144531 177.863281 178.523438 177.453125 177.824219 C 176.394531 176.019531 175.542969 174.136719 175.15625 172.0625 C 174.886719 170.617188 174.996094 169.195312 175.300781 167.777344 C 175.332031 167.625 175.417969 167.484375 175.480469 167.335938 C 175.679688 166.875 176.199219 166.617188 176.65625 166.804688 C 177.46875 167.136719 178.292969 167.460938 179.078125 167.863281 C 180.875 168.785156 182.417969 170.070312 183.929688 171.390625 C 184.847656 172.195312 185.417969 173.265625 185.988281 174.328125 C 186.046875 174.4375 186.234375 174.476562 186.363281 174.550781 C 186.390625 174.476562 186.429688 174.402344 186.445312 174.324219 C 186.875 171.714844 186.949219 169.074219 187.082031 166.4375 C 187.128906 165.480469 187.160156 164.523438 187.140625 163.566406 C 187.136719 163.410156 186.851562 163.25 186.683594 163.109375 C 186.632812 163.070312 186.527344 163.089844 186.445312 163.101562 C 186.207031 163.136719 185.96875 163.171875 185.734375 163.226562 C 183.554688 163.738281 181.589844 163.113281 179.75 162.015625 C 178.863281 161.484375 178.03125 160.835938 177.234375 160.167969 C 176.058594 159.175781 175.675781 157.765625 175.464844 156.328125 C 175.300781 155.210938 175.445312 154.085938 175.800781 153.011719 C 175.921875 152.640625 176.160156 152.300781 176.386719 151.972656 C 176.691406 151.53125 177.394531 151.34375 177.882812 151.554688 C 179.355469 152.195312 180.828125 152.832031 182.289062 153.492188 C 183.632812 154.097656 184.726562 155.023438 185.582031 156.222656 C 186 156.8125 186.394531 157.414062 186.824219 157.988281 C 186.898438 158.089844 187.09375 158.105469 187.234375 158.144531 C 187.246094 158.148438 187.3125 158.039062 187.316406 157.984375 C 187.351562 156.542969 187.375 155.105469 187.414062 153.664062 C 187.429688 153.09375 187.292969 152.5625 187.101562 152.027344 C 186.082031 149.160156 186.332031 146.367188 187.617188 143.636719 C 187.957031 142.914062 188.3125 142.199219 188.671875 141.488281 C 188.816406 141.203125 189.226562 141.160156 189.5 141.339844 C 189.988281 141.652344 190.367188 142.074219 190.609375 142.582031 C 190.878906 143.15625 191.097656 143.761719 191.28125 144.371094 C 191.441406 144.90625 191.527344 145.464844 191.628906 146.015625 C 192.058594 148.382812 191.761719 150.636719 190.480469 152.710938 C 189.894531 153.65625 189.507812 154.734375 188.59375 155.464844 C 188.429688 155.597656 188.316406 155.871094 188.300781 156.085938 C 188.257812 156.722656 188.265625 157.363281 188.28125 158.003906 C 188.285156 158.132812 188.382812 158.324219 188.488281 158.371094 C 188.605469 158.421875 188.832031 158.390625 188.925781 158.304688 C 189.390625 157.867188 189.835938 157.410156 190.273438 156.941406 C 192.875 154.167969 196.121094 152.515625 199.742188 151.480469 C 200.28125 151.324219 200.683594 151.558594 201.117188 151.714844 C 201.296875 151.777344 201.519531 152.066406 201.511719 152.246094 C 201.332031 156.574219 199.1875 159.367188 195.421875 160.492188 C 194.113281 160.882812 192.78125 161.1875 191.46875 161.550781 C 190.835938 161.730469 190.210938 161.765625 189.5625 161.675781 C 188.960938 161.59375 188.289062 162.097656 188.183594 162.667969 C 188.121094 162.980469 188.105469 163.300781 188.089844 163.621094 C 188.027344 165.136719 187.992188 166.660156 187.902344 168.175781 C 187.820312 169.609375 187.722656 171.050781 187.558594 172.480469 C 187.367188 174.160156 187.394531 175.832031 187.5625 177.507812 C 187.679688 178.699219 187.808594 179.890625 187.9375 181.082031 C 187.941406 181.140625 188.011719 181.246094 188.019531 181.242188 C 188.160156 181.1875 188.34375 181.15625 188.417969 181.050781 C 188.601562 180.789062 188.730469 180.496094 188.882812 180.214844 C 191.324219 175.679688 194.917969 172.394531 199.664062 170.355469 C 200.179688 170.132812 200.71875 169.957031 201.214844 169.695312 C 202.175781 169.1875 202.753906 169.769531 203.105469 170.527344 C 203.492188 171.351562 203.585938 172.226562 203.410156 173.105469 C 202.992188 175.144531 202.527344 177.183594 201.585938 179.050781 C 200.203125 181.78125 198.140625 183.832031 195.246094 185.007812 C 194.023438 185.503906 192.777344 185.730469 191.480469 185.550781 C 190.53125 185.417969 189.597656 185.171875 188.65625 184.976562 C 188.382812 184.921875 188 185.222656 187.992188 185.496094 C 187.988281 185.578125 187.980469 185.65625 187.984375 185.738281 C 188.121094 188.851562 188.257812 191.964844 188.402344 195.078125 C 188.402344 195.113281 188.492188 195.164062 188.542969 195.171875 C 188.621094 195.179688 188.75 195.179688 188.773438 195.136719 C 190.070312 192.808594 192.011719 190.964844 193.5625 188.832031 C 195.175781 186.609375 197.390625 185.230469 199.886719 184.230469 C 200.855469 183.84375 201.859375 183.554688 202.828125 183.171875 C 204.167969 182.644531 205.339844 182.773438 206.320312 183.894531 C 206.375 183.953125 206.4375 184.011719 206.503906 184.054688 C 206.699219 184.179688 206.902344 184.324219 207.121094 184.078125 C 208.140625 182.941406 209.304688 181.964844 210.484375 180.996094 C 211.347656 180.285156 212.117188 179.460938 212.902344 178.660156 C 213.53125 178.015625 213.65625 177.261719 213.207031 176.460938 C 212.46875 175.132812 211.753906 173.789062 210.785156 172.601562 C 209.371094 170.863281 207.933594 169.140625 206.558594 167.363281 C 205.582031 166.097656 204.679688 164.773438 203.78125 163.449219 C 203.515625 163.0625 203.332031 162.605469 203.175781 162.15625 C 202.582031 160.449219 203.425781 158.703125 205.152344 158.097656 C 205.515625 157.96875 205.945312 157.953125 206.332031 157.988281 C 206.726562 158.023438 207.121094 158.148438 207.488281 158.304688 C 209.871094 159.332031 212.003906 160.710938 213.726562 162.695312 C 216.402344 165.78125 219.144531 168.8125 221.800781 171.917969 C 223.046875 173.378906 224.179688 174.933594 225.324219 176.480469 C 225.75 177.058594 225.96875 177.761719 226.089844 178.480469 C 226.371094 180.136719 226.71875 181.78125 226.917969 183.449219 C 227.195312 185.75 227.386719 188.066406 227.324219 190.390625 C 227.300781 191.265625 227.183594 192.140625 227.128906 193.019531 C 227.054688 194.195312 226.539062 195.164062 225.730469 195.992188 C 225.113281 196.621094 224.496094 197.257812 223.835938 197.839844 C 222.152344 199.328125 220.566406 200.910156 219.082031 202.601562 C 218.394531 203.386719 217.671875 204.136719 216.957031 204.894531 C 215.074219 206.898438 212.925781 208.5625 210.472656 209.816406 C 209.253906 210.441406 208.492188 211.363281 208.113281 212.683594 C 207.648438 214.308594 207.410156 215.96875 207.28125 217.640625 C 207.039062 220.832031 206.660156 224.011719 206.699219 227.21875 C 206.699219 227.445312 206.628906 227.679688 206.558594 227.902344 C 206.5 228.085938 206.335938 228.160156 206.167969 228.070312 C 206.039062 228.003906 205.863281 227.890625 205.84375 227.773438 C 205.789062 227.464844 205.78125 227.136719 205.800781 226.820312 C 205.960938 224.105469 206.125 221.390625 206.308594 218.679688 C 206.375 217.640625 206.519531 216.609375 206.605469 215.574219 C 206.695312 214.449219 207 213.371094 207.308594 212.296875 C 207.730469 210.835938 208.632812 209.734375 210 209.078125 C 211.242188 208.480469 212.324219 207.65625 213.4375 206.871094 C 214.820312 205.890625 216.050781 204.734375 217.140625 203.449219 C 218.957031 201.304688 220.972656 199.351562 222.988281 197.398438 C 223.675781 196.730469 224.351562 196.042969 225.054688 195.386719 C 225.796875 194.691406 226.183594 193.839844 226.277344 192.851562 C 226.34375 192.132812 226.410156 191.414062 226.425781 190.695312 C 226.492188 187.648438 226.261719 184.625 225.714844 181.621094 C 225.515625 180.519531 225.328125 179.417969 225.128906 178.320312 C 224.996094 177.59375 224.65625 176.972656 224.207031 176.390625 C 222.6875 174.429688 221.1875 172.457031 219.492188 170.628906 C 217.367188 168.339844 215.339844 165.957031 213.320312 163.570312 C 211.734375 161.695312 209.785156 160.335938 207.585938 159.289062 C 207.066406 159.039062 206.535156 158.886719 205.964844 158.875 C 205.363281 158.863281 204.875 159.101562 204.496094 159.5625 C 203.75 160.464844 203.605469 161.453125 204.226562 162.449219 C 204.980469 163.671875 205.757812 164.894531 206.628906 166.039062 C 207.839844 167.632812 209.140625 169.15625 210.410156 170.707031 C 211.632812 172.195312 212.765625 173.746094 213.648438 175.460938 C 213.90625 175.957031 214.144531 176.464844 214.335938 176.992188 C 214.476562 177.371094 214.425781 177.78125 214.242188 178.15625 C 213.925781 178.808594 213.542969 179.421875 213 179.914062 C 212.230469 180.613281 211.46875 181.328125 210.65625 181.972656 C 209.582031 182.824219 208.605469 183.769531 207.71875 184.804688 C 207.503906 185.054688 207.394531 185.363281 207.5 185.695312 C 208.410156 188.558594 207.515625 191.039062 205.871094 193.363281 C 205.730469 193.558594 205.585938 193.75 205.429688 193.929688 C 203.421875 196.226562 201.570312 198.636719 199.816406 201.128906 C 199.640625 201.378906 199.367188 201.566406 199.125 201.761719 C 199.082031 201.796875 198.9375 201.78125 198.894531 201.738281 C 198.792969 201.628906 198.632812 201.472656 198.65625 201.367188 C 198.703125 201.148438 198.820312 200.925781 198.960938 200.742188 C 200.824219 198.335938 202.578125 195.847656 204.601562 193.566406 C 205.839844 192.164062 206.628906 190.519531 206.933594 188.640625 C 207.214844 186.902344 206.613281 185.5 205.457031 184.273438 C 205.117188 183.910156 204.640625 183.773438 204.136719 183.792969 C 203.898438 183.800781 203.652344 183.832031 203.425781 183.90625 C 201.753906 184.46875 200.0625 184.972656 198.5 185.820312 C 196.9375 186.667969 195.515625 187.652344 194.460938 189.144531 C 193.585938 190.382812 192.554688 191.519531 191.550781 192.660156 C 190.484375 193.878906 189.785156 195.328125 188.929688 196.675781 C 188.769531 196.929688 188.71875 197.28125 188.695312 197.59375 C 188.523438 199.664062 188.246094 201.726562 188.332031 203.816406 C 188.382812 205.015625 188.339844 206.214844 188.355469 207.414062 C 188.363281 208.132812 188.339844 208.863281 188.449219 209.570312 C 188.875 212.347656 188.832031 215.152344 189.011719 217.945312 C 189.140625 219.941406 189.210938 221.941406 189.226562 223.941406 C 189.234375 225.285156 189.375 226.65625 188.847656 227.957031 C 188.820312 228.023438 188.707031 228.121094 188.675781 228.109375 C 188.542969 228.042969 188.410156 227.957031 188.296875 227.855469 C 188.25 227.808594 188.226562 227.710938 188.226562 227.636719 C 188.242188 224.917969 188.261719 222.203125 188.277344 219.894531 Z M 192.59375 184.773438 C 192.898438 184.710938 193.53125 184.621094 194.140625 184.445312 C 196.628906 183.730469 198.53125 182.203125 199.96875 180.101562 C 201.539062 177.808594 202.089844 175.148438 202.589844 172.488281 C 202.695312 171.933594 202.519531 171.367188 202.214844 170.890625 C 202.113281 170.730469 201.835938 170.621094 201.628906 170.605469 C 201.402344 170.589844 201.164062 170.695312 200.945312 170.777344 C 198.597656 171.640625 196.511719 172.90625 194.582031 174.511719 C 191.671875 176.9375 189.710938 179.953125 188.433594 183.457031 C 188.375 183.621094 188.566406 183.953125 188.765625 184.015625 C 189.902344 184.390625 191.046875 184.738281 192.59375 184.773438 Z M 185.632812 182.492188 C 185.953125 182.605469 186.175781 182.699219 186.40625 182.765625 C 186.777344 182.878906 187.046875 182.695312 187.023438 182.320312 C 186.972656 181.363281 186.914062 180.410156 186.824219 179.457031 C 186.578125 176.820312 185.253906 174.648438 183.785156 172.539062 C 183.738281 172.472656 183.679688 172.417969 183.625 172.359375 C 182.089844 170.824219 180.359375 169.539062 178.445312 168.507812 C 177.957031 168.242188 177.414062 168.074219 176.894531 167.871094 C 176.621094 167.769531 176.226562 167.992188 176.144531 168.273438 C 175.765625 169.605469 175.777344 170.953125 176.09375 172.292969 C 176.519531 174.089844 177.226562 175.777344 178.203125 177.347656 C 178.414062 177.6875 178.632812 178.027344 178.90625 178.3125 C 180.816406 180.296875 182.878906 182.042969 185.632812 182.492188 Z M 184.253906 162.613281 C 184.964844 162.441406 185.753906 162.285156 186.519531 162.054688 C 186.816406 161.964844 187.03125 161.695312 187.078125 161.34375 C 187.140625 160.871094 187.207031 160.40625 186.917969 159.964844 C 186.269531 158.957031 185.625 157.945312 184.988281 156.929688 C 184.144531 155.59375 182.941406 154.703125 181.5 154.101562 C 180.386719 153.636719 179.28125 153.164062 178.1875 152.667969 C 177.195312 152.21875 176.9375 152.429688 176.617188 153.40625 C 176.265625 154.484375 176.210938 155.613281 176.433594 156.722656 C 176.636719 157.746094 176.996094 158.722656 177.804688 159.46875 C 179.300781 160.851562 180.980469 161.90625 182.984375 162.386719 C 183.371094 162.480469 183.769531 162.53125 184.253906 162.613281 Z M 190.183594 160.859375 C 190.699219 160.78125 191.195312 160.773438 191.644531 160.625 C 192.710938 160.273438 193.800781 160.03125 194.882812 159.742188 C 198.390625 158.796875 200.335938 156.507812 200.597656 152.644531 C 200.609375 152.503906 200.207031 152.253906 200.042969 152.304688 C 199.132812 152.609375 198.207031 152.875 197.316406 153.222656 C 194.097656 154.484375 191.476562 156.539062 189.382812 159.265625 C 189.191406 159.515625 189.035156 159.800781 188.921875 160.09375 C 188.882812 160.199219 188.976562 160.457031 189.074219 160.5 C 189.4375 160.65625 189.824219 160.75 190.183594 160.859375 Z M 190.894531 147.59375 C 190.832031 147.035156 190.816406 146.226562 190.644531 145.457031 C 190.433594 144.539062 190.292969 143.582031 189.6875 142.792969 C 189.546875 142.613281 189.203125 142.554688 189.089844 142.726562 C 187.605469 145.03125 187.125 147.546875 187.503906 150.238281 C 187.546875 150.546875 187.625 150.882812 187.792969 151.136719 C 188.300781 151.90625 188.394531 152.75 188.375 153.632812 C 188.371094 153.855469 188.464844 153.9375 188.621094 153.875 C 188.691406 153.847656 188.789062 153.828125 188.824219 153.769531 C 189.234375 153.09375 189.652344 152.417969 190.035156 151.722656 C 190.703125 150.507812 190.964844 149.199219 190.890625 147.59375 Z M 190.894531 147.59375 " fill-opacity="1" fill-rule="nonzero"/><g fill="#2e6417" fill-opacity="1"><g transform="translate(95.486176, 135.676119)"><g><path d="M 0.5 -1.28125 C 0.5 -1.550781 0.53125 -1.800781 0.59375 -2.03125 C 0.65625 -2.257812 0.71875 -2.5 0.78125 -2.75 C 0.84375 -3 0.875 -3.289062 0.875 -3.625 C 0.875 -4.039062 0.816406 -4.359375 0.703125 -4.578125 C 0.597656 -4.796875 0.546875 -4.90625 0.546875 -4.90625 C 0.554688 -4.914062 0.675781 -4.953125 0.90625 -5.015625 C 1.144531 -5.078125 1.414062 -5.109375 1.71875 -5.109375 C 2.039062 -5.109375 2.363281 -5.050781 2.6875 -4.9375 C 3.007812 -4.820312 3.28125 -4.597656 3.5 -4.265625 C 3.71875 -3.941406 3.820312 -3.46875 3.8125 -2.84375 C 3.8125 -2.53125 3.828125 -2.203125 3.859375 -1.859375 C 3.898438 -1.523438 4.015625 -1.242188 4.203125 -1.015625 C 4.398438 -0.785156 4.722656 -0.671875 5.171875 -0.671875 C 5.628906 -0.679688 5.941406 -0.851562 6.109375 -1.1875 C 6.285156 -1.519531 6.375 -1.9375 6.375 -2.4375 C 6.375 -2.925781 6.234375 -3.34375 5.953125 -3.6875 C 5.671875 -4.03125 5.304688 -4.34375 4.859375 -4.625 C 4.421875 -4.90625 3.953125 -5.1875 3.453125 -5.46875 C 2.953125 -5.75 2.476562 -6.046875 2.03125 -6.359375 C 1.59375 -6.679688 1.234375 -7.054688 0.953125 -7.484375 C 0.671875 -7.910156 0.53125 -8.410156 0.53125 -8.984375 C 0.53125 -9.578125 0.640625 -10.054688 0.859375 -10.421875 C 1.085938 -10.785156 1.382812 -11.050781 1.75 -11.21875 C 2.125 -11.394531 2.523438 -11.484375 2.953125 -11.484375 L 5.515625 -11.484375 C 5.648438 -11.484375 5.796875 -11.484375 5.953125 -11.484375 C 6.109375 -11.492188 6.273438 -11.5 6.453125 -11.5 C 6.804688 -11.5 7.171875 -11.476562 7.546875 -11.4375 C 7.929688 -11.394531 8.28125 -11.304688 8.59375 -11.171875 C 8.914062 -11.035156 9.171875 -10.832031 9.359375 -10.5625 C 9.554688 -10.300781 9.65625 -9.941406 9.65625 -9.484375 C 9.65625 -8.972656 9.492188 -8.523438 9.171875 -8.140625 C 8.859375 -7.765625 8.359375 -7.578125 7.671875 -7.578125 C 7.316406 -7.578125 7.007812 -7.640625 6.75 -7.765625 C 6.488281 -7.898438 6.273438 -8.054688 6.109375 -8.234375 C 5.953125 -8.421875 5.832031 -8.578125 5.75 -8.703125 C 5.675781 -8.835938 5.640625 -8.90625 5.640625 -8.90625 C 5.640625 -8.90625 5.695312 -8.9375 5.8125 -9 C 5.9375 -9.070312 6.054688 -9.179688 6.171875 -9.328125 C 6.285156 -9.472656 6.34375 -9.65625 6.34375 -9.875 C 6.34375 -10.007812 6.3125 -10.148438 6.25 -10.296875 C 6.1875 -10.441406 6.0625 -10.566406 5.875 -10.671875 C 5.695312 -10.773438 5.4375 -10.828125 5.09375 -10.828125 C 4.5625 -10.828125 4.171875 -10.707031 3.921875 -10.46875 C 3.679688 -10.238281 3.5625 -9.957031 3.5625 -9.625 C 3.5625 -9.238281 3.710938 -8.890625 4.015625 -8.578125 C 4.316406 -8.265625 4.703125 -7.96875 5.171875 -7.6875 C 5.640625 -7.40625 6.140625 -7.113281 6.671875 -6.8125 C 7.203125 -6.507812 7.703125 -6.171875 8.171875 -5.796875 C 8.640625 -5.421875 9.023438 -4.976562 9.328125 -4.46875 C 9.628906 -3.96875 9.78125 -3.375 9.78125 -2.6875 C 9.78125 -2.070312 9.660156 -1.582031 9.421875 -1.21875 C 9.191406 -0.863281 8.894531 -0.597656 8.53125 -0.421875 C 8.175781 -0.253906 7.8125 -0.140625 7.4375 -0.078125 C 7.070312 -0.0234375 6.75 0 6.46875 0 L 1.84375 0 C 1.425781 0 1.097656 -0.109375 0.859375 -0.328125 C 0.617188 -0.546875 0.5 -0.863281 0.5 -1.28125 Z M 0.5 -1.28125 "/></g></g></g><g fill="#2e6417" fill-opacity="1"><g transform="translate(111.682323, 135.676119)"><g><path d="M 4.78125 0 L 0.5 0 C 0.5 -0.90625 0.535156 -1.703125 0.609375 -2.390625 C 0.691406 -3.078125 0.785156 -3.722656 0.890625 -4.328125 C 0.992188 -4.929688 1.085938 -5.546875 1.171875 -6.171875 C 1.253906 -6.804688 1.296875 -7.507812 1.296875 -8.28125 C 1.296875 -9.019531 1.226562 -9.625 1.09375 -10.09375 C 0.96875 -10.5625 0.835938 -10.910156 0.703125 -11.140625 C 0.566406 -11.367188 0.5 -11.484375 0.5 -11.484375 C 0.5 -11.484375 0.617188 -11.484375 0.859375 -11.484375 C 1.097656 -11.484375 1.394531 -11.484375 1.75 -11.484375 C 2.101562 -11.484375 2.453125 -11.484375 2.796875 -11.484375 C 3.148438 -11.484375 3.445312 -11.484375 3.6875 -11.484375 C 3.925781 -11.484375 4.046875 -11.484375 4.046875 -11.484375 C 4.171875 -11.265625 4.253906 -11.03125 4.296875 -10.78125 C 4.335938 -10.53125 4.363281 -10.316406 4.375 -10.140625 C 4.382812 -9.960938 4.390625 -9.875 4.390625 -9.875 C 4.390625 -9.1875 4.300781 -8.644531 4.125 -8.25 C 3.945312 -7.851562 3.722656 -7.554688 3.453125 -7.359375 C 3.179688 -7.160156 2.910156 -7.015625 2.640625 -6.921875 C 2.378906 -6.835938 2.15625 -6.753906 1.96875 -6.671875 C 1.789062 -6.597656 1.703125 -6.484375 1.703125 -6.328125 C 1.703125 -6.160156 1.816406 -6.054688 2.046875 -6.015625 C 2.273438 -5.984375 2.71875 -5.96875 3.375 -5.96875 L 5.3125 -5.96875 C 5.71875 -5.96875 6.070312 -6.03125 6.375 -6.15625 C 6.675781 -6.289062 6.910156 -6.53125 7.078125 -6.875 C 7.242188 -7.21875 7.328125 -7.6875 7.328125 -8.28125 C 7.328125 -9.019531 7.269531 -9.625 7.15625 -10.09375 C 7.050781 -10.5625 6.945312 -10.910156 6.84375 -11.140625 C 6.738281 -11.367188 6.6875 -11.484375 6.6875 -11.484375 C 6.6875 -11.484375 6.785156 -11.484375 6.984375 -11.484375 C 7.179688 -11.484375 7.425781 -11.484375 7.71875 -11.484375 C 8.007812 -11.484375 8.300781 -11.484375 8.59375 -11.484375 C 8.894531 -11.484375 9.140625 -11.484375 9.328125 -11.484375 C 9.523438 -11.484375 9.625 -11.484375 9.625 -11.484375 C 9.820312 -11.421875 9.976562 -11.289062 10.09375 -11.09375 C 10.21875 -10.894531 10.316406 -10.664062 10.390625 -10.40625 C 10.460938 -10.15625 10.515625 -9.90625 10.546875 -9.65625 C 10.578125 -9.40625 10.59375 -9.203125 10.59375 -9.046875 C 10.601562 -8.890625 10.609375 -8.8125 10.609375 -8.8125 C 10.617188 -7.726562 10.585938 -6.691406 10.515625 -5.703125 C 10.441406 -4.722656 10.363281 -3.765625 10.28125 -2.828125 C 10.207031 -1.890625 10.171875 -0.945312 10.171875 0 L 6.6875 0 C 6.6875 -0.445312 6.726562 -0.914062 6.8125 -1.40625 C 6.90625 -1.894531 6.988281 -2.367188 7.0625 -2.828125 C 7.132812 -3.285156 7.140625 -3.695312 7.078125 -4.0625 C 7.023438 -4.4375 6.863281 -4.734375 6.59375 -4.953125 C 6.332031 -5.171875 5.90625 -5.28125 5.3125 -5.28125 L 3.984375 -5.28125 C 3.921875 -5.28125 3.769531 -5.273438 3.53125 -5.265625 C 3.289062 -5.265625 3.023438 -5.25 2.734375 -5.21875 C 2.441406 -5.1875 2.1875 -5.132812 1.96875 -5.0625 C 1.757812 -4.988281 1.65625 -4.890625 1.65625 -4.765625 C 1.65625 -4.648438 1.726562 -4.5625 1.875 -4.5 C 2.019531 -4.4375 2.210938 -4.375 2.453125 -4.3125 C 2.703125 -4.257812 2.957031 -4.171875 3.21875 -4.046875 C 3.476562 -3.921875 3.726562 -3.738281 3.96875 -3.5 C 4.207031 -3.257812 4.398438 -2.925781 4.546875 -2.5 C 4.703125 -2.082031 4.78125 -1.546875 4.78125 -0.890625 Z M 4.78125 0 "/></g></g></g><g fill="#2e6417" fill-opacity="1"><g transform="translate(128.715181, 135.676119)"><g><path d="M 0.5 -11.484375 C 0.5 -11.484375 0.660156 -11.484375 0.984375 -11.484375 C 1.316406 -11.484375 1.738281 -11.484375 2.25 -11.484375 C 2.757812 -11.484375 3.300781 -11.484375 3.875 -11.484375 C 4.445312 -11.484375 4.988281 -11.484375 5.5 -11.484375 C 6.019531 -11.484375 6.441406 -11.484375 6.765625 -11.484375 C 7.097656 -11.484375 7.265625 -11.484375 7.265625 -11.484375 C 7.628906 -11.484375 7.984375 -11.457031 8.328125 -11.40625 C 8.679688 -11.363281 9 -11.265625 9.28125 -11.109375 C 9.570312 -10.960938 9.800781 -10.734375 9.96875 -10.421875 C 10.144531 -10.117188 10.234375 -9.710938 10.234375 -9.203125 C 10.234375 -8.523438 10.015625 -7.96875 9.578125 -7.53125 C 9.148438 -7.09375 8.601562 -6.875 7.9375 -6.875 C 7.46875 -6.875 7.097656 -6.957031 6.828125 -7.125 C 6.554688 -7.300781 6.347656 -7.5 6.203125 -7.71875 C 6.066406 -7.9375 5.976562 -8.128906 5.9375 -8.296875 C 5.90625 -8.460938 5.890625 -8.546875 5.890625 -8.546875 C 5.890625 -8.546875 5.9375 -8.578125 6.03125 -8.640625 C 6.125 -8.710938 6.210938 -8.828125 6.296875 -8.984375 C 6.390625 -9.148438 6.4375 -9.382812 6.4375 -9.6875 C 6.4375 -10 6.328125 -10.265625 6.109375 -10.484375 C 5.898438 -10.710938 5.609375 -10.828125 5.234375 -10.828125 C 4.796875 -10.828125 4.453125 -10.648438 4.203125 -10.296875 C 3.953125 -9.953125 3.828125 -9.550781 3.828125 -9.09375 C 3.828125 -8.625 3.898438 -8.242188 4.046875 -7.953125 C 4.203125 -7.671875 4.394531 -7.453125 4.625 -7.296875 C 4.851562 -7.140625 5.082031 -7 5.3125 -6.875 C 5.539062 -6.757812 5.734375 -6.632812 5.890625 -6.5 C 6.046875 -6.363281 6.125 -6.175781 6.125 -5.9375 C 6.125 -5.71875 6.066406 -5.53125 5.953125 -5.375 C 5.835938 -5.226562 5.691406 -5.085938 5.515625 -4.953125 C 5.335938 -4.828125 5.160156 -4.675781 4.984375 -4.5 C 4.804688 -4.320312 4.660156 -4.097656 4.546875 -3.828125 C 4.429688 -3.554688 4.375 -3.21875 4.375 -2.8125 C 4.375 -2.457031 4.445312 -2.113281 4.59375 -1.78125 C 4.75 -1.445312 4.953125 -1.175781 5.203125 -0.96875 C 5.453125 -0.757812 5.742188 -0.65625 6.078125 -0.65625 C 6.410156 -0.65625 6.664062 -0.769531 6.84375 -1 C 7.03125 -1.238281 7.125 -1.570312 7.125 -2 C 7.125 -2.414062 7.078125 -2.75 6.984375 -3 C 6.898438 -3.257812 6.8125 -3.445312 6.71875 -3.5625 C 6.625 -3.675781 6.578125 -3.734375 6.578125 -3.734375 C 6.578125 -3.734375 6.582031 -3.800781 6.59375 -3.9375 C 6.613281 -4.070312 6.675781 -4.21875 6.78125 -4.375 C 6.882812 -4.539062 7.0625 -4.6875 7.3125 -4.8125 C 7.5625 -4.945312 7.921875 -5.015625 8.390625 -5.015625 C 8.867188 -5.015625 9.269531 -4.90625 9.59375 -4.6875 C 9.914062 -4.476562 10.15625 -4.203125 10.3125 -3.859375 C 10.46875 -3.515625 10.546875 -3.132812 10.546875 -2.71875 C 10.546875 -2.195312 10.445312 -1.757812 10.25 -1.40625 C 10.050781 -1.0625 9.800781 -0.785156 9.5 -0.578125 C 9.207031 -0.367188 8.890625 -0.21875 8.546875 -0.125 C 8.210938 -0.0390625 7.894531 0 7.59375 0 L 2.15625 0 C 1.726562 0 1.398438 -0.101562 1.171875 -0.3125 C 0.941406 -0.53125 0.78125 -0.796875 0.6875 -1.109375 C 0.59375 -1.421875 0.546875 -1.722656 0.546875 -2.015625 C 0.546875 -2.628906 0.660156 -3.140625 0.890625 -3.546875 C 1.117188 -3.953125 1.410156 -4.273438 1.765625 -4.515625 C 2.128906 -4.765625 2.515625 -4.957031 2.921875 -5.09375 C 3.335938 -5.238281 3.722656 -5.347656 4.078125 -5.421875 C 4.441406 -5.503906 4.738281 -5.582031 4.96875 -5.65625 C 5.195312 -5.738281 5.3125 -5.832031 5.3125 -5.9375 C 5.3125 -6.0625 5.207031 -6.125 5 -6.125 C 4.84375 -6.125 4.628906 -6.09375 4.359375 -6.03125 C 4.085938 -5.976562 3.800781 -5.925781 3.5 -5.875 C 3.207031 -5.820312 2.929688 -5.796875 2.671875 -5.796875 C 2.128906 -5.796875 1.710938 -5.863281 1.421875 -6 C 1.128906 -6.144531 0.925781 -6.34375 0.8125 -6.59375 C 0.707031 -6.851562 0.65625 -7.160156 0.65625 -7.515625 C 0.65625 -7.929688 0.691406 -8.375 0.765625 -8.84375 C 0.847656 -9.3125 0.890625 -9.773438 0.890625 -10.234375 C 0.890625 -10.648438 0.820312 -10.960938 0.6875 -11.171875 C 0.5625 -11.378906 0.5 -11.484375 0.5 -11.484375 Z M 0.5 -11.484375 "/></g></g></g><g fill="#2e6417" fill-opacity="1"><g transform="translate(145.68242, 135.676119)"><g><path d="M 1.875 0 C 1.519531 0 1.238281 -0.0703125 1.03125 -0.21875 C 0.832031 -0.363281 0.691406 -0.546875 0.609375 -0.765625 C 0.535156 -0.984375 0.5 -1.203125 0.5 -1.421875 C 0.5 -2.085938 0.535156 -2.675781 0.609375 -3.1875 C 0.691406 -3.707031 0.785156 -4.207031 0.890625 -4.6875 C 0.992188 -5.175781 1.085938 -5.703125 1.171875 -6.265625 C 1.253906 -6.835938 1.296875 -7.507812 1.296875 -8.28125 C 1.296875 -9.019531 1.226562 -9.625 1.09375 -10.09375 C 0.96875 -10.5625 0.835938 -10.910156 0.703125 -11.140625 C 0.566406 -11.367188 0.5 -11.484375 0.5 -11.484375 C 0.5 -11.484375 0.59375 -11.484375 0.78125 -11.484375 C 0.976562 -11.484375 1.222656 -11.484375 1.515625 -11.484375 C 1.816406 -11.484375 2.113281 -11.484375 2.40625 -11.484375 C 2.695312 -11.484375 2.9375 -11.484375 3.125 -11.484375 C 3.320312 -11.484375 3.421875 -11.484375 3.421875 -11.484375 C 3.660156 -11.421875 3.847656 -11.289062 3.984375 -11.09375 C 4.128906 -10.894531 4.238281 -10.664062 4.3125 -10.40625 C 4.394531 -10.15625 4.453125 -9.90625 4.484375 -9.65625 C 4.523438 -9.40625 4.546875 -9.203125 4.546875 -9.046875 C 4.554688 -8.890625 4.5625 -8.8125 4.5625 -8.8125 C 4.5625 -7.988281 4.53125 -7.265625 4.46875 -6.640625 C 4.40625 -6.023438 4.335938 -5.457031 4.265625 -4.9375 C 4.191406 -4.425781 4.117188 -3.910156 4.046875 -3.390625 C 3.984375 -2.878906 3.953125 -2.320312 3.953125 -1.71875 C 3.953125 -1.382812 4.019531 -1.125 4.15625 -0.9375 C 4.300781 -0.75 4.546875 -0.65625 4.890625 -0.65625 C 5.265625 -0.65625 5.550781 -0.753906 5.75 -0.953125 C 5.945312 -1.160156 6.046875 -1.457031 6.046875 -1.84375 C 6.046875 -2.113281 6.007812 -2.34375 5.9375 -2.53125 C 5.863281 -2.726562 5.78125 -2.910156 5.6875 -3.078125 C 5.59375 -3.242188 5.503906 -3.425781 5.421875 -3.625 C 5.347656 -3.820312 5.3125 -4.054688 5.3125 -4.328125 C 5.3125 -4.941406 5.503906 -5.378906 5.890625 -5.640625 C 6.273438 -5.898438 6.738281 -6.03125 7.28125 -6.03125 C 7.738281 -6.03125 8.113281 -5.972656 8.40625 -5.859375 C 8.695312 -5.742188 8.925781 -5.613281 9.09375 -5.46875 C 9.269531 -5.332031 9.390625 -5.207031 9.453125 -5.09375 C 9.515625 -4.976562 9.546875 -4.921875 9.546875 -4.921875 C 9.546875 -4.921875 9.476562 -4.8125 9.34375 -4.59375 C 9.207031 -4.382812 9.140625 -4.046875 9.140625 -3.578125 C 9.140625 -3.273438 9.171875 -2.992188 9.234375 -2.734375 C 9.296875 -2.472656 9.359375 -2.222656 9.421875 -1.984375 C 9.492188 -1.753906 9.53125 -1.507812 9.53125 -1.25 C 9.53125 -0.9375 9.445312 -0.691406 9.28125 -0.515625 C 9.125 -0.335938 8.914062 -0.207031 8.65625 -0.125 C 8.40625 -0.0390625 8.144531 0 7.875 0 Z M 1.875 0 "/></g></g></g><g fill="#2e6417" fill-opacity="1"><g transform="translate(161.140171, 135.676119)"><g><path d="M 1.84375 -11.484375 L 11.109375 -11.484375 C 11.523438 -11.484375 11.851562 -11.375 12.09375 -11.15625 C 12.332031 -10.9375 12.453125 -10.617188 12.453125 -10.203125 C 12.453125 -9.929688 12.421875 -9.679688 12.359375 -9.453125 C 12.296875 -9.234375 12.234375 -9 12.171875 -8.75 C 12.109375 -8.507812 12.078125 -8.210938 12.078125 -7.859375 C 12.078125 -7.453125 12.128906 -7.132812 12.234375 -6.90625 C 12.347656 -6.6875 12.40625 -6.578125 12.40625 -6.578125 C 12.40625 -6.566406 12.269531 -6.53125 12 -6.46875 C 11.738281 -6.40625 11.429688 -6.375 11.078125 -6.375 C 10.722656 -6.375 10.359375 -6.4375 9.984375 -6.5625 C 9.617188 -6.6875 9.304688 -6.910156 9.046875 -7.234375 C 8.796875 -7.566406 8.671875 -8.046875 8.671875 -8.671875 C 8.671875 -8.941406 8.707031 -9.203125 8.78125 -9.453125 C 8.863281 -9.703125 8.9375 -9.929688 9 -10.140625 C 9.0625 -10.347656 9.066406 -10.507812 9.015625 -10.625 C 8.960938 -10.75 8.804688 -10.8125 8.546875 -10.8125 C 8.253906 -10.8125 8.054688 -10.648438 7.953125 -10.328125 C 7.847656 -10.003906 7.804688 -9.5625 7.828125 -9 C 7.847656 -8.445312 7.90625 -7.804688 8 -7.078125 C 8.09375 -6.359375 8.195312 -5.59375 8.3125 -4.78125 C 8.4375 -3.976562 8.539062 -3.164062 8.625 -2.34375 C 8.71875 -1.519531 8.765625 -0.738281 8.765625 0 L 4.46875 0 C 4.46875 -0.238281 4.492188 -0.613281 4.546875 -1.125 C 4.609375 -1.632812 4.679688 -2.222656 4.765625 -2.890625 C 4.859375 -3.554688 4.945312 -4.25 5.03125 -4.96875 C 5.113281 -5.6875 5.171875 -6.394531 5.203125 -7.09375 C 5.242188 -7.789062 5.242188 -8.414062 5.203125 -8.96875 C 5.171875 -9.53125 5.078125 -9.976562 4.921875 -10.3125 C 4.773438 -10.644531 4.554688 -10.8125 4.265625 -10.8125 C 4.003906 -10.8125 3.847656 -10.75 3.796875 -10.625 C 3.742188 -10.507812 3.75 -10.347656 3.8125 -10.140625 C 3.875 -9.929688 3.941406 -9.695312 4.015625 -9.4375 C 4.097656 -9.1875 4.140625 -8.921875 4.140625 -8.640625 C 4.140625 -8.023438 4.015625 -7.554688 3.765625 -7.234375 C 3.523438 -6.910156 3.226562 -6.6875 2.875 -6.5625 C 2.53125 -6.4375 2.1875 -6.375 1.84375 -6.375 C 1.5 -6.375 1.195312 -6.40625 0.9375 -6.46875 C 0.6875 -6.53125 0.554688 -6.566406 0.546875 -6.578125 C 0.546875 -6.578125 0.597656 -6.6875 0.703125 -6.90625 C 0.816406 -7.132812 0.875 -7.453125 0.875 -7.859375 C 0.875 -8.210938 0.84375 -8.507812 0.78125 -8.75 C 0.71875 -9 0.65625 -9.234375 0.59375 -9.453125 C 0.53125 -9.679688 0.5 -9.929688 0.5 -10.203125 C 0.5 -10.617188 0.617188 -10.9375 0.859375 -11.15625 C 1.097656 -11.375 1.425781 -11.484375 1.84375 -11.484375 Z M 1.84375 -11.484375 "/></g></g></g><g fill="#2e6417" fill-opacity="1"><g transform="translate(180.010515, 135.676119)"><g><path d="M 0.5 -11.484375 C 0.5 -11.484375 0.660156 -11.484375 0.984375 -11.484375 C 1.316406 -11.484375 1.738281 -11.484375 2.25 -11.484375 C 2.757812 -11.484375 3.300781 -11.484375 3.875 -11.484375 C 4.445312 -11.484375 4.988281 -11.484375 5.5 -11.484375 C 6.019531 -11.484375 6.441406 -11.484375 6.765625 -11.484375 C 7.097656 -11.484375 7.265625 -11.484375 7.265625 -11.484375 C 7.628906 -11.484375 7.984375 -11.457031 8.328125 -11.40625 C 8.679688 -11.363281 9 -11.265625 9.28125 -11.109375 C 9.570312 -10.960938 9.800781 -10.734375 9.96875 -10.421875 C 10.144531 -10.117188 10.234375 -9.710938 10.234375 -9.203125 C 10.234375 -8.523438 10.015625 -7.96875 9.578125 -7.53125 C 9.148438 -7.09375 8.601562 -6.875 7.9375 -6.875 C 7.46875 -6.875 7.097656 -6.957031 6.828125 -7.125 C 6.554688 -7.300781 6.347656 -7.5 6.203125 -7.71875 C 6.066406 -7.9375 5.976562 -8.128906 5.9375 -8.296875 C 5.90625 -8.460938 5.890625 -8.546875 5.890625 -8.546875 C 5.890625 -8.546875 5.9375 -8.578125 6.03125 -8.640625 C 6.125 -8.710938 6.210938 -8.828125 6.296875 -8.984375 C 6.390625 -9.148438 6.4375 -9.382812 6.4375 -9.6875 C 6.4375 -10 6.328125 -10.265625 6.109375 -10.484375 C 5.898438 -10.710938 5.609375 -10.828125 5.234375 -10.828125 C 4.796875 -10.828125 4.453125 -10.648438 4.203125 -10.296875 C 3.953125 -9.953125 3.828125 -9.550781 3.828125 -9.09375 C 3.828125 -8.625 3.898438 -8.242188 4.046875 -7.953125 C 4.203125 -7.671875 4.394531 -7.453125 4.625 -7.296875 C 4.851562 -7.140625 5.082031 -7 5.3125 -6.875 C 5.539062 -6.757812 5.734375 -6.632812 5.890625 -6.5 C 6.046875 -6.363281 6.125 -6.175781 6.125 -5.9375 C 6.125 -5.71875 6.066406 -5.53125 5.953125 -5.375 C 5.835938 -5.226562 5.691406 -5.085938 5.515625 -4.953125 C 5.335938 -4.828125 5.160156 -4.675781 4.984375 -4.5 C 4.804688 -4.320312 4.660156 -4.097656 4.546875 -3.828125 C 4.429688 -3.554688 4.375 -3.21875 4.375 -2.8125 C 4.375 -2.457031 4.445312 -2.113281 4.59375 -1.78125 C 4.75 -1.445312 4.953125 -1.175781 5.203125 -0.96875 C 5.453125 -0.757812 5.742188 -0.65625 6.078125 -0.65625 C 6.410156 -0.65625 6.664062 -0.769531 6.84375 -1 C 7.03125 -1.238281 7.125 -1.570312 7.125 -2 C 7.125 -2.414062 7.078125 -2.75 6.984375 -3 C 6.898438 -3.257812 6.8125 -3.445312 6.71875 -3.5625 C 6.625 -3.675781 6.578125 -3.734375 6.578125 -3.734375 C 6.578125 -3.734375 6.582031 -3.800781 6.59375 -3.9375 C 6.613281 -4.070312 6.675781 -4.21875 6.78125 -4.375 C 6.882812 -4.539062 7.0625 -4.6875 7.3125 -4.8125 C 7.5625 -4.945312 7.921875 -5.015625 8.390625 -5.015625 C 8.867188 -5.015625 9.269531 -4.90625 9.59375 -4.6875 C 9.914062 -4.476562 10.15625 -4.203125 10.3125 -3.859375 C 10.46875 -3.515625 10.546875 -3.132812 10.546875 -2.71875 C 10.546875 -2.195312 10.445312 -1.757812 10.25 -1.40625 C 10.050781 -1.0625 9.800781 -0.785156 9.5 -0.578125 C 9.207031 -0.367188 8.890625 -0.21875 8.546875 -0.125 C 8.210938 -0.0390625 7.894531 0 7.59375 0 L 2.15625 0 C 1.726562 0 1.398438 -0.101562 1.171875 -0.3125 C 0.941406 -0.53125 0.78125 -0.796875 0.6875 -1.109375 C 0.59375 -1.421875 0.546875 -1.722656 0.546875 -2.015625 C 0.546875 -2.628906 0.660156 -3.140625 0.890625 -3.546875 C 1.117188 -3.953125 1.410156 -4.273438 1.765625 -4.515625 C 2.128906 -4.765625 2.515625 -4.957031 2.921875 -5.09375 C 3.335938 -5.238281 3.722656 -5.347656 4.078125 -5.421875 C 4.441406 -5.503906 4.738281 -5.582031 4.96875 -5.65625 C 5.195312 -5.738281 5.3125 -5.832031 5.3125 -5.9375 C 5.3125 -6.0625 5.207031 -6.125 5 -6.125 C 4.84375 -6.125 4.628906 -6.09375 4.359375 -6.03125 C 4.085938 -5.976562 3.800781 -5.925781 3.5 -5.875 C 3.207031 -5.820312 2.929688 -5.796875 2.671875 -5.796875 C 2.128906 -5.796875 1.710938 -5.863281 1.421875 -6 C 1.128906 -6.144531 0.925781 -6.34375 0.8125 -6.59375 C 0.707031 -6.851562 0.65625 -7.160156 0.65625 -7.515625 C 0.65625 -7.929688 0.691406 -8.375 0.765625 -8.84375 C 0.847656 -9.3125 0.890625 -9.773438 0.890625 -10.234375 C 0.890625 -10.648438 0.820312 -10.960938 0.6875 -11.171875 C 0.5625 -11.378906 0.5 -11.484375 0.5 -11.484375 Z M 0.5 -11.484375 "/></g></g></g><g fill="#2e6417" fill-opacity="1"><g transform="translate(196.977754, 135.676119)"><g><path d="M 0.5 0 C 0.5 -0.90625 0.535156 -1.703125 0.609375 -2.390625 C 0.691406 -3.078125 0.785156 -3.722656 0.890625 -4.328125 C 0.992188 -4.929688 1.085938 -5.546875 1.171875 -6.171875 C 1.253906 -6.804688 1.296875 -7.507812 1.296875 -8.28125 C 1.296875 -9.019531 1.226562 -9.625 1.09375 -10.09375 C 0.96875 -10.5625 0.835938 -10.910156 0.703125 -11.140625 C 0.566406 -11.367188 0.5 -11.484375 0.5 -11.484375 C 0.5 -11.484375 0.628906 -11.484375 0.890625 -11.484375 C 1.148438 -11.484375 1.5 -11.484375 1.9375 -11.484375 C 2.375 -11.484375 2.851562 -11.484375 3.375 -11.484375 C 3.894531 -11.484375 4.410156 -11.484375 4.921875 -11.484375 C 5.429688 -11.484375 5.90625 -11.484375 6.34375 -11.484375 C 6.78125 -11.484375 7.128906 -11.484375 7.390625 -11.484375 C 7.660156 -11.484375 7.796875 -11.484375 7.796875 -11.484375 C 8.117188 -11.484375 8.472656 -11.453125 8.859375 -11.390625 C 9.242188 -11.328125 9.601562 -11.21875 9.9375 -11.0625 C 10.269531 -10.90625 10.539062 -10.679688 10.75 -10.390625 C 10.96875 -10.109375 11.078125 -9.742188 11.078125 -9.296875 C 11.078125 -8.753906 10.945312 -8.304688 10.6875 -7.953125 C 10.425781 -7.609375 10.09375 -7.320312 9.6875 -7.09375 C 9.289062 -6.863281 8.863281 -6.65625 8.40625 -6.46875 C 7.945312 -6.289062 7.515625 -6.109375 7.109375 -5.921875 C 6.703125 -5.734375 6.367188 -5.507812 6.109375 -5.25 C 5.847656 -4.988281 5.71875 -4.648438 5.71875 -4.234375 C 5.71875 -3.929688 5.796875 -3.648438 5.953125 -3.390625 C 6.117188 -3.140625 6.363281 -3.015625 6.6875 -3.015625 C 7.007812 -3.015625 7.265625 -3.085938 7.453125 -3.234375 C 7.640625 -3.378906 7.769531 -3.554688 7.84375 -3.765625 C 7.925781 -3.972656 7.976562 -4.179688 8 -4.390625 C 8.03125 -4.609375 8.039062 -4.789062 8.03125 -4.9375 C 8.019531 -5.082031 8.015625 -5.15625 8.015625 -5.15625 C 8.015625 -5.15625 8.039062 -5.15625 8.09375 -5.15625 C 8.15625 -5.164062 8.234375 -5.171875 8.328125 -5.171875 C 8.523438 -5.171875 8.773438 -5.144531 9.078125 -5.09375 C 9.378906 -5.050781 9.679688 -4.953125 9.984375 -4.796875 C 10.296875 -4.648438 10.554688 -4.425781 10.765625 -4.125 C 10.972656 -3.820312 11.078125 -3.414062 11.078125 -2.90625 C 11.078125 -2.1875 10.921875 -1.597656 10.609375 -1.140625 C 10.304688 -0.679688 9.921875 -0.347656 9.453125 -0.140625 C 8.984375 0.0664062 8.5 0.171875 8 0.171875 C 7.445312 0.171875 6.972656 0.0546875 6.578125 -0.171875 C 6.179688 -0.398438 5.863281 -0.6875 5.625 -1.03125 C 5.382812 -1.382812 5.207031 -1.757812 5.09375 -2.15625 C 4.988281 -2.550781 4.9375 -2.925781 4.9375 -3.28125 C 4.9375 -3.914062 5.019531 -4.453125 5.1875 -4.890625 C 5.363281 -5.328125 5.570312 -5.707031 5.8125 -6.03125 C 6.0625 -6.363281 6.304688 -6.675781 6.546875 -6.96875 C 6.785156 -7.257812 6.988281 -7.566406 7.15625 -7.890625 C 7.332031 -8.210938 7.421875 -8.582031 7.421875 -9 C 7.421875 -9.519531 7.296875 -9.945312 7.046875 -10.28125 C 6.804688 -10.625 6.390625 -10.796875 5.796875 -10.796875 C 5.285156 -10.796875 4.890625 -10.65625 4.609375 -10.375 C 4.335938 -10.09375 4.144531 -9.710938 4.03125 -9.234375 C 3.925781 -8.753906 3.878906 -8.203125 3.890625 -7.578125 C 3.910156 -6.960938 3.96875 -6.3125 4.0625 -5.625 C 4.15625 -4.945312 4.253906 -4.265625 4.359375 -3.578125 C 4.472656 -2.898438 4.570312 -2.25 4.65625 -1.625 C 4.738281 -1.007812 4.78125 -0.46875 4.78125 0 Z M 0.5 0 "/></g></g></g><g fill="#2e6417" fill-opacity="1"><g transform="translate(214.46999, 135.676119)"><g/></g></g><g fill="#2e6417" fill-opacity="1"><g transform="translate(223.677104, 135.676119)"><g><path d="M 4.78125 0 L 0.5 0 L 0.5 -1.03125 C 0.5 -1.695312 0.617188 -2.253906 0.859375 -2.703125 C 1.097656 -3.160156 1.414062 -3.535156 1.8125 -3.828125 C 2.21875 -4.117188 2.660156 -4.347656 3.140625 -4.515625 C 3.617188 -4.691406 4.09375 -4.820312 4.5625 -4.90625 C 5.039062 -4.988281 5.484375 -5.054688 5.890625 -5.109375 C 6.296875 -5.160156 6.617188 -5.207031 6.859375 -5.25 C 7.097656 -5.300781 7.21875 -5.378906 7.21875 -5.484375 C 7.21875 -5.578125 7.097656 -5.644531 6.859375 -5.6875 C 6.617188 -5.738281 6.304688 -5.769531 5.921875 -5.78125 C 5.546875 -5.800781 5.148438 -5.8125 4.734375 -5.8125 C 4.359375 -5.820312 3.988281 -5.820312 3.625 -5.8125 C 3.257812 -5.800781 2.96875 -5.796875 2.75 -5.796875 C 2.207031 -5.796875 1.789062 -5.863281 1.5 -6 C 1.207031 -6.144531 1.003906 -6.34375 0.890625 -6.59375 C 0.785156 -6.851562 0.734375 -7.160156 0.734375 -7.515625 C 0.734375 -7.929688 0.769531 -8.375 0.84375 -8.84375 C 0.925781 -9.3125 0.96875 -9.773438 0.96875 -10.234375 C 0.96875 -10.648438 0.898438 -10.960938 0.765625 -11.171875 C 0.640625 -11.378906 0.578125 -11.484375 0.578125 -11.484375 C 0.578125 -11.484375 0.703125 -11.484375 0.953125 -11.484375 C 1.210938 -11.484375 1.550781 -11.484375 1.96875 -11.484375 C 2.394531 -11.484375 2.863281 -11.484375 3.375 -11.484375 C 3.882812 -11.484375 4.390625 -11.484375 4.890625 -11.484375 C 5.390625 -11.484375 5.847656 -11.484375 6.265625 -11.484375 C 6.691406 -11.484375 7.03125 -11.484375 7.28125 -11.484375 C 7.539062 -11.484375 7.671875 -11.484375 7.671875 -11.484375 C 8.023438 -11.484375 8.375 -11.457031 8.71875 -11.40625 C 9.070312 -11.363281 9.394531 -11.265625 9.6875 -11.109375 C 9.976562 -10.960938 10.207031 -10.734375 10.375 -10.421875 C 10.550781 -10.117188 10.640625 -9.710938 10.640625 -9.203125 C 10.640625 -8.523438 10.414062 -7.96875 9.96875 -7.53125 C 9.53125 -7.09375 8.945312 -6.875 8.21875 -6.875 C 7.78125 -6.875 7.414062 -6.957031 7.125 -7.125 C 6.832031 -7.300781 6.601562 -7.5 6.4375 -7.71875 C 6.269531 -7.9375 6.148438 -8.128906 6.078125 -8.296875 C 6.003906 -8.460938 5.96875 -8.546875 5.96875 -8.546875 C 5.96875 -8.546875 6.015625 -8.578125 6.109375 -8.640625 C 6.203125 -8.710938 6.289062 -8.828125 6.375 -8.984375 C 6.46875 -9.148438 6.515625 -9.382812 6.515625 -9.6875 C 6.515625 -10 6.40625 -10.265625 6.1875 -10.484375 C 5.976562 -10.710938 5.679688 -10.828125 5.296875 -10.828125 C 4.859375 -10.828125 4.515625 -10.648438 4.265625 -10.296875 C 4.023438 -9.953125 3.90625 -9.550781 3.90625 -9.09375 C 3.90625 -8.695312 4.003906 -8.351562 4.203125 -8.0625 C 4.398438 -7.78125 4.65625 -7.539062 4.96875 -7.34375 C 5.28125 -7.15625 5.613281 -6.984375 5.96875 -6.828125 C 6.320312 -6.679688 6.65625 -6.539062 6.96875 -6.40625 C 7.28125 -6.269531 7.53125 -6.128906 7.71875 -5.984375 C 7.914062 -5.847656 8.015625 -5.679688 8.015625 -5.484375 C 8.015625 -5.253906 7.929688 -5.078125 7.765625 -4.953125 C 7.597656 -4.828125 7.375 -4.722656 7.09375 -4.640625 C 6.820312 -4.566406 6.535156 -4.492188 6.234375 -4.421875 C 5.929688 -4.347656 5.640625 -4.25 5.359375 -4.125 C 5.085938 -4.007812 4.867188 -3.847656 4.703125 -3.640625 C 4.535156 -3.429688 4.453125 -3.15625 4.453125 -2.8125 C 4.453125 -2.53125 4.476562 -2.210938 4.53125 -1.859375 C 4.582031 -1.503906 4.632812 -1.160156 4.6875 -0.828125 C 4.75 -0.492188 4.78125 -0.21875 4.78125 0 Z M 4.78125 0 "/></g></g></g><g fill="#2e6417" fill-opacity="1"><g transform="translate(240.742774, 135.676119)"><g><path d="M 0.5 -2.0625 C 0.5 -2.488281 0.585938 -2.851562 0.765625 -3.15625 C 0.953125 -3.457031 1.191406 -3.71875 1.484375 -3.9375 C 1.785156 -4.15625 2.097656 -4.34375 2.421875 -4.5 C 2.753906 -4.65625 3.066406 -4.800781 3.359375 -4.9375 C 3.660156 -5.070312 3.898438 -5.203125 4.078125 -5.328125 C 4.265625 -5.453125 4.359375 -5.59375 4.359375 -5.75 C 4.359375 -5.894531 4.265625 -6.03125 4.078125 -6.15625 C 3.898438 -6.28125 3.660156 -6.40625 3.359375 -6.53125 C 3.066406 -6.664062 2.753906 -6.8125 2.421875 -6.96875 C 2.097656 -7.125 1.785156 -7.3125 1.484375 -7.53125 C 1.191406 -7.75 0.953125 -8.007812 0.765625 -8.3125 C 0.585938 -8.625 0.5 -8.988281 0.5 -9.40625 C 0.5 -9.71875 0.578125 -10.03125 0.734375 -10.34375 C 0.890625 -10.664062 1.140625 -10.9375 1.484375 -11.15625 C 1.835938 -11.375 2.289062 -11.484375 2.84375 -11.484375 L 9.21875 -11.484375 C 9.769531 -11.484375 10.21875 -11.375 10.5625 -11.15625 C 10.90625 -10.9375 11.15625 -10.664062 11.3125 -10.34375 C 11.476562 -10.03125 11.5625 -9.71875 11.5625 -9.40625 C 11.5625 -8.988281 11.46875 -8.625 11.28125 -8.3125 C 11.101562 -8.007812 10.863281 -7.75 10.5625 -7.53125 C 10.269531 -7.3125 9.957031 -7.125 9.625 -6.96875 C 9.300781 -6.8125 8.988281 -6.664062 8.6875 -6.53125 C 8.394531 -6.40625 8.15625 -6.28125 7.96875 -6.15625 C 7.78125 -6.03125 7.6875 -5.894531 7.6875 -5.75 C 7.6875 -5.59375 7.78125 -5.453125 7.96875 -5.328125 C 8.15625 -5.203125 8.394531 -5.070312 8.6875 -4.9375 C 8.988281 -4.800781 9.300781 -4.65625 9.625 -4.5 C 9.957031 -4.34375 10.269531 -4.15625 10.5625 -3.9375 C 10.863281 -3.71875 11.101562 -3.457031 11.28125 -3.15625 C 11.46875 -2.851562 11.5625 -2.488281 11.5625 -2.0625 C 11.5625 -1.757812 11.476562 -1.445312 11.3125 -1.125 C 11.15625 -0.800781 10.90625 -0.53125 10.5625 -0.3125 C 10.21875 -0.101562 9.769531 0 9.21875 0 L 2.84375 0 C 2.289062 0 1.835938 -0.101562 1.484375 -0.3125 C 1.140625 -0.53125 0.890625 -0.800781 0.734375 -1.125 C 0.578125 -1.445312 0.5 -1.757812 0.5 -2.0625 Z M 4.3125 -8.90625 C 4.3125 -8.519531 4.367188 -8.15625 4.484375 -7.8125 C 4.609375 -7.46875 4.726562 -7.128906 4.84375 -6.796875 C 4.96875 -6.472656 5.03125 -6.128906 5.03125 -5.765625 C 5.03125 -5.390625 4.96875 -5.035156 4.84375 -4.703125 C 4.726562 -4.367188 4.609375 -4.03125 4.484375 -3.6875 C 4.367188 -3.351562 4.3125 -2.988281 4.3125 -2.59375 C 4.3125 -2.070312 4.46875 -1.625 4.78125 -1.25 C 5.09375 -0.875 5.503906 -0.6875 6.015625 -0.6875 C 6.535156 -0.6875 6.953125 -0.875 7.265625 -1.25 C 7.585938 -1.625 7.75 -2.070312 7.75 -2.59375 C 7.75 -2.988281 7.6875 -3.351562 7.5625 -3.6875 C 7.445312 -4.03125 7.328125 -4.367188 7.203125 -4.703125 C 7.078125 -5.035156 7.015625 -5.390625 7.015625 -5.765625 C 7.015625 -6.128906 7.078125 -6.472656 7.203125 -6.796875 C 7.328125 -7.128906 7.445312 -7.46875 7.5625 -7.8125 C 7.6875 -8.15625 7.75 -8.519531 7.75 -8.90625 C 7.75 -9.4375 7.585938 -9.882812 7.265625 -10.25 C 6.953125 -10.625 6.535156 -10.8125 6.015625 -10.8125 C 5.503906 -10.8125 5.09375 -10.625 4.78125 -10.25 C 4.46875 -9.882812 4.3125 -9.4375 4.3125 -8.90625 Z M 4.3125 -8.90625 "/></g></g></g><g fill="#2e6417" fill-opacity="1"><g transform="translate(258.727186, 135.676119)"><g><path d="M 0.5 0 C 0.5 -0.90625 0.535156 -1.703125 0.609375 -2.390625 C 0.691406 -3.078125 0.785156 -3.722656 0.890625 -4.328125 C 0.992188 -4.929688 1.085938 -5.546875 1.171875 -6.171875 C 1.253906 -6.804688 1.296875 -7.507812 1.296875 -8.28125 C 1.296875 -9.019531 1.226562 -9.625 1.09375 -10.09375 C 0.96875 -10.5625 0.835938 -10.910156 0.703125 -11.140625 C 0.566406 -11.367188 0.5 -11.484375 0.5 -11.484375 C 0.5 -11.484375 0.628906 -11.484375 0.890625 -11.484375 C 1.148438 -11.484375 1.5 -11.484375 1.9375 -11.484375 C 2.375 -11.484375 2.851562 -11.484375 3.375 -11.484375 C 3.894531 -11.484375 4.410156 -11.484375 4.921875 -11.484375 C 5.429688 -11.484375 5.90625 -11.484375 6.34375 -11.484375 C 6.78125 -11.484375 7.128906 -11.484375 7.390625 -11.484375 C 7.660156 -11.484375 7.796875 -11.484375 7.796875 -11.484375 C 8.117188 -11.484375 8.472656 -11.453125 8.859375 -11.390625 C 9.242188 -11.328125 9.601562 -11.21875 9.9375 -11.0625 C 10.269531 -10.90625 10.539062 -10.679688 10.75 -10.390625 C 10.96875 -10.109375 11.078125 -9.742188 11.078125 -9.296875 C 11.078125 -8.753906 10.945312 -8.304688 10.6875 -7.953125 C 10.425781 -7.609375 10.09375 -7.320312 9.6875 -7.09375 C 9.289062 -6.863281 8.863281 -6.65625 8.40625 -6.46875 C 7.945312 -6.289062 7.515625 -6.109375 7.109375 -5.921875 C 6.703125 -5.734375 6.367188 -5.507812 6.109375 -5.25 C 5.847656 -4.988281 5.71875 -4.648438 5.71875 -4.234375 C 5.71875 -3.929688 5.796875 -3.648438 5.953125 -3.390625 C 6.117188 -3.140625 6.363281 -3.015625 6.6875 -3.015625 C 7.007812 -3.015625 7.265625 -3.085938 7.453125 -3.234375 C 7.640625 -3.378906 7.769531 -3.554688 7.84375 -3.765625 C 7.925781 -3.972656 7.976562 -4.179688 8 -4.390625 C 8.03125 -4.609375 8.039062 -4.789062 8.03125 -4.9375 C 8.019531 -5.082031 8.015625 -5.15625 8.015625 -5.15625 C 8.015625 -5.15625 8.039062 -5.15625 8.09375 -5.15625 C 8.15625 -5.164062 8.234375 -5.171875 8.328125 -5.171875 C 8.523438 -5.171875 8.773438 -5.144531 9.078125 -5.09375 C 9.378906 -5.050781 9.679688 -4.953125 9.984375 -4.796875 C 10.296875 -4.648438 10.554688 -4.425781 10.765625 -4.125 C 10.972656 -3.820312 11.078125 -3.414062 11.078125 -2.90625 C 11.078125 -2.1875 10.921875 -1.597656 10.609375 -1.140625 C 10.304688 -0.679688 9.921875 -0.347656 9.453125 -0.140625 C 8.984375 0.0664062 8.5 0.171875 8 0.171875 C 7.445312 0.171875 6.972656 0.0546875 6.578125 -0.171875 C 6.179688 -0.398438 5.863281 -0.6875 5.625 -1.03125 C 5.382812 -1.382812 5.207031 -1.757812 5.09375 -2.15625 C 4.988281 -2.550781 4.9375 -2.925781 4.9375 -3.28125 C 4.9375 -3.914062 5.019531 -4.453125 5.1875 -4.890625 C 5.363281 -5.328125 5.570312 -5.707031 5.8125 -6.03125 C 6.0625 -6.363281 6.304688 -6.675781 6.546875 -6.96875 C 6.785156 -7.257812 6.988281 -7.566406 7.15625 -7.890625 C 7.332031 -8.210938 7.421875 -8.582031 7.421875 -9 C 7.421875 -9.519531 7.296875 -9.945312 7.046875 -10.28125 C 6.804688 -10.625 6.390625 -10.796875 5.796875 -10.796875 C 5.285156 -10.796875 4.890625 -10.65625 4.609375 -10.375 C 4.335938 -10.09375 4.144531 -9.710938 4.03125 -9.234375 C 3.925781 -8.753906 3.878906 -8.203125 3.890625 -7.578125 C 3.910156 -6.960938 3.96875 -6.3125 4.0625 -5.625 C 4.15625 -4.945312 4.253906 -4.265625 4.359375 -3.578125 C 4.472656 -2.898438 4.570312 -2.25 4.65625 -1.625 C 4.738281 -1.007812 4.78125 -0.46875 4.78125 0 Z M 0.5 0 "/></g></g></g><g fill="#2e6417" fill-opacity="1"><g transform="translate(276.224449, 135.676119)"><g/></g></g><g fill="#2e6417" fill-opacity="1"><g transform="translate(150.826694, 248.755793)"><g><path d="M 0.5 0 C 0.5 -0.90625 0.535156 -1.703125 0.609375 -2.390625 C 0.691406 -3.078125 0.785156 -3.722656 0.890625 -4.328125 C 0.992188 -4.929688 1.085938 -5.546875 1.171875 -6.171875 C 1.253906 -6.804688 1.296875 -7.507812 1.296875 -8.28125 C 1.296875 -9.019531 1.226562 -9.625 1.09375 -10.09375 C 0.96875 -10.5625 0.835938 -10.910156 0.703125 -11.140625 C 0.566406 -11.367188 0.5 -11.484375 0.5 -11.484375 C 0.5 -11.484375 0.597656 -11.484375 0.796875 -11.484375 C 0.992188 -11.484375 1.25 -11.484375 1.5625 -11.484375 C 1.882812 -11.484375 2.222656 -11.484375 2.578125 -11.484375 C 2.941406 -11.484375 3.28125 -11.484375 3.59375 -11.484375 C 3.90625 -11.484375 4.160156 -11.484375 4.359375 -11.484375 C 4.566406 -11.484375 4.671875 -11.484375 4.671875 -11.484375 C 5.117188 -11.484375 5.453125 -11.359375 5.671875 -11.109375 C 5.898438 -10.859375 6.050781 -10.53125 6.125 -10.125 C 6.207031 -9.726562 6.242188 -9.304688 6.234375 -8.859375 C 6.234375 -8.410156 6.222656 -7.984375 6.203125 -7.578125 C 6.191406 -7.179688 6.207031 -6.859375 6.25 -6.609375 C 6.289062 -6.359375 6.398438 -6.234375 6.578125 -6.234375 C 6.753906 -6.234375 6.882812 -6.359375 6.96875 -6.609375 C 7.0625 -6.859375 7.140625 -7.179688 7.203125 -7.578125 C 7.265625 -7.984375 7.347656 -8.410156 7.453125 -8.859375 C 7.566406 -9.304688 7.734375 -9.726562 7.953125 -10.125 C 8.171875 -10.53125 8.472656 -10.859375 8.859375 -11.109375 C 9.253906 -11.359375 9.765625 -11.484375 10.390625 -11.484375 L 13.3125 -11.484375 C 13.113281 -11.234375 12.957031 -10.929688 12.84375 -10.578125 C 12.738281 -10.222656 12.660156 -9.867188 12.609375 -9.515625 C 12.554688 -9.160156 12.523438 -8.863281 12.515625 -8.625 C 12.503906 -8.394531 12.5 -8.28125 12.5 -8.28125 C 12.5 -7.507812 12.539062 -6.804688 12.625 -6.171875 C 12.707031 -5.546875 12.800781 -4.929688 12.90625 -4.328125 C 13.007812 -3.722656 13.101562 -3.078125 13.1875 -2.390625 C 13.269531 -1.703125 13.3125 -0.90625 13.3125 0 L 9.03125 0 C 9.03125 -0.164062 9.0625 -0.46875 9.125 -0.90625 C 9.195312 -1.351562 9.273438 -1.867188 9.359375 -2.453125 C 9.453125 -3.046875 9.53125 -3.648438 9.59375 -4.265625 C 9.664062 -4.890625 9.703125 -5.46875 9.703125 -6 C 9.703125 -6.539062 9.644531 -6.972656 9.53125 -7.296875 C 9.414062 -7.628906 9.21875 -7.796875 8.9375 -7.796875 C 8.570312 -7.796875 8.28125 -7.648438 8.0625 -7.359375 C 7.851562 -7.078125 7.707031 -6.710938 7.625 -6.265625 C 7.539062 -5.816406 7.507812 -5.34375 7.53125 -4.84375 C 7.550781 -4.351562 7.613281 -3.878906 7.71875 -3.421875 C 7.820312 -2.972656 7.957031 -2.609375 8.125 -2.328125 C 8.300781 -2.046875 8.492188 -1.90625 8.703125 -1.90625 C 8.648438 -1.382812 8.53125 -0.984375 8.34375 -0.703125 C 8.15625 -0.421875 7.945312 -0.21875 7.71875 -0.09375 C 7.5 0.0195312 7.304688 0.09375 7.140625 0.125 C 6.972656 0.15625 6.890625 0.171875 6.890625 0.171875 C 6.390625 0.171875 6.003906 0.0546875 5.734375 -0.171875 C 5.460938 -0.398438 5.28125 -0.703125 5.1875 -1.078125 C 5.09375 -1.453125 5.054688 -1.875 5.078125 -2.34375 C 5.109375 -2.8125 5.15625 -3.300781 5.21875 -3.8125 C 5.289062 -4.320312 5.359375 -4.8125 5.421875 -5.28125 C 5.492188 -5.75 5.53125 -6.171875 5.53125 -6.546875 C 5.539062 -6.929688 5.484375 -7.234375 5.359375 -7.453125 C 5.242188 -7.679688 5.023438 -7.796875 4.703125 -7.796875 C 4.460938 -7.796875 4.289062 -7.628906 4.1875 -7.296875 C 4.09375 -6.972656 4.050781 -6.539062 4.0625 -6 C 4.070312 -5.46875 4.113281 -4.890625 4.1875 -4.265625 C 4.257812 -3.648438 4.335938 -3.046875 4.421875 -2.453125 C 4.515625 -1.867188 4.597656 -1.351562 4.671875 -0.90625 C 4.742188 -0.46875 4.78125 -0.164062 4.78125 0 Z M 0.5 0 "/></g></g></g><g fill="#2e6417" fill-opacity="1"><g transform="translate(174.473379, 248.755793)"><g><path d="M 4.78125 0 L 0.5 0 C 0.5 -0.90625 0.535156 -1.703125 0.609375 -2.390625 C 0.691406 -3.078125 0.785156 -3.722656 0.890625 -4.328125 C 0.992188 -4.929688 1.085938 -5.546875 1.171875 -6.171875 C 1.253906 -6.804688 1.296875 -7.507812 1.296875 -8.28125 C 1.296875 -9.019531 1.226562 -9.625 1.09375 -10.09375 C 0.96875 -10.5625 0.835938 -10.910156 0.703125 -11.140625 C 0.566406 -11.367188 0.5 -11.484375 0.5 -11.484375 C 0.5 -11.484375 0.617188 -11.484375 0.859375 -11.484375 C 1.097656 -11.484375 1.394531 -11.484375 1.75 -11.484375 C 2.101562 -11.484375 2.453125 -11.484375 2.796875 -11.484375 C 3.148438 -11.484375 3.445312 -11.484375 3.6875 -11.484375 C 3.925781 -11.484375 4.046875 -11.484375 4.046875 -11.484375 C 4.171875 -11.265625 4.253906 -11.03125 4.296875 -10.78125 C 4.335938 -10.53125 4.363281 -10.316406 4.375 -10.140625 C 4.382812 -9.960938 4.390625 -9.875 4.390625 -9.875 C 4.390625 -9.1875 4.300781 -8.601562 4.125 -8.125 C 3.945312 -7.644531 3.722656 -7.238281 3.453125 -6.90625 C 3.179688 -6.582031 2.910156 -6.3125 2.640625 -6.09375 C 2.367188 -5.882812 2.140625 -5.695312 1.953125 -5.53125 C 1.773438 -5.375 1.6875 -5.226562 1.6875 -5.09375 C 1.6875 -4.945312 1.765625 -4.875 1.921875 -4.875 C 2.035156 -4.875 2.179688 -4.890625 2.359375 -4.921875 C 2.535156 -4.960938 2.722656 -4.984375 2.921875 -4.984375 C 3.140625 -4.984375 3.359375 -4.929688 3.578125 -4.828125 C 3.796875 -4.734375 3.992188 -4.546875 4.171875 -4.265625 C 4.359375 -3.984375 4.503906 -3.570312 4.609375 -3.03125 C 4.722656 -2.488281 4.78125 -1.773438 4.78125 -0.890625 Z M 4.78125 0 "/></g></g></g><g fill="#2e6417" fill-opacity="1"><g transform="translate(189.58886, 248.755793)"><g><path d="M 0.5 0 C 0.5 -0.90625 0.535156 -1.703125 0.609375 -2.390625 C 0.691406 -3.078125 0.785156 -3.722656 0.890625 -4.328125 C 0.992188 -4.929688 1.085938 -5.546875 1.171875 -6.171875 C 1.253906 -6.804688 1.296875 -7.507812 1.296875 -8.28125 C 1.296875 -9.019531 1.226562 -9.625 1.09375 -10.09375 C 0.96875 -10.5625 0.835938 -10.910156 0.703125 -11.140625 C 0.566406 -11.367188 0.5 -11.484375 0.5 -11.484375 C 0.5 -11.484375 0.628906 -11.484375 0.890625 -11.484375 C 1.160156 -11.484375 1.492188 -11.484375 1.890625 -11.484375 C 2.285156 -11.484375 2.679688 -11.484375 3.078125 -11.484375 C 3.472656 -11.484375 3.804688 -11.484375 4.078125 -11.484375 C 4.347656 -11.484375 4.484375 -11.484375 4.484375 -11.484375 C 4.828125 -11.484375 5.113281 -11.335938 5.34375 -11.046875 C 5.570312 -10.765625 5.765625 -10.390625 5.921875 -9.921875 C 6.085938 -9.460938 6.226562 -8.953125 6.34375 -8.390625 C 6.46875 -7.835938 6.585938 -7.28125 6.703125 -6.71875 C 6.828125 -6.164062 6.96875 -5.65625 7.125 -5.1875 C 7.28125 -4.726562 7.476562 -4.351562 7.71875 -4.0625 C 7.957031 -3.78125 8.25 -3.640625 8.59375 -3.640625 C 8.84375 -3.640625 9.007812 -3.75 9.09375 -3.96875 C 9.175781 -4.1875 9.203125 -4.476562 9.171875 -4.84375 C 9.148438 -5.207031 9.097656 -5.625 9.015625 -6.09375 C 8.941406 -6.570312 8.867188 -7.0625 8.796875 -7.5625 C 8.734375 -8.070312 8.703125 -8.570312 8.703125 -9.0625 C 8.703125 -9.59375 8.738281 -10.019531 8.8125 -10.34375 C 8.882812 -10.664062 8.972656 -10.910156 9.078125 -11.078125 C 9.179688 -11.242188 9.269531 -11.351562 9.34375 -11.40625 C 9.425781 -11.457031 9.46875 -11.484375 9.46875 -11.484375 C 9.46875 -11.484375 9.570312 -11.484375 9.78125 -11.484375 C 9.988281 -11.484375 10.25 -11.484375 10.5625 -11.484375 C 10.875 -11.484375 11.179688 -11.484375 11.484375 -11.484375 C 11.785156 -11.484375 12.039062 -11.484375 12.25 -11.484375 C 12.457031 -11.484375 12.5625 -11.484375 12.5625 -11.484375 C 12.363281 -11.191406 12.207031 -10.863281 12.09375 -10.5 C 11.976562 -10.132812 11.898438 -9.78125 11.859375 -9.4375 C 11.816406 -9.101562 11.789062 -8.828125 11.78125 -8.609375 C 11.769531 -8.390625 11.765625 -8.28125 11.765625 -8.28125 C 11.765625 -7.507812 11.804688 -6.804688 11.890625 -6.171875 C 11.972656 -5.546875 12.066406 -4.929688 12.171875 -4.328125 C 12.273438 -3.722656 12.363281 -3.078125 12.4375 -2.390625 C 12.519531 -1.703125 12.5625 -0.90625 12.5625 0 L 8.578125 0 C 8.234375 0 7.945312 -0.140625 7.71875 -0.421875 C 7.5 -0.703125 7.316406 -1.070312 7.171875 -1.53125 C 7.023438 -2 6.898438 -2.507812 6.796875 -3.0625 C 6.691406 -3.625 6.585938 -4.179688 6.484375 -4.734375 C 6.378906 -5.285156 6.253906 -5.789062 6.109375 -6.25 C 5.972656 -6.71875 5.789062 -7.09375 5.5625 -7.375 C 5.34375 -7.65625 5.054688 -7.796875 4.703125 -7.796875 C 4.460938 -7.796875 4.289062 -7.628906 4.1875 -7.296875 C 4.09375 -6.972656 4.050781 -6.539062 4.0625 -6 C 4.070312 -5.46875 4.113281 -4.890625 4.1875 -4.265625 C 4.257812 -3.648438 4.335938 -3.046875 4.421875 -2.453125 C 4.515625 -1.867188 4.597656 -1.351562 4.671875 -0.90625 C 4.742188 -0.46875 4.78125 -0.164062 4.78125 0 Z M 0.5 0 "/></g></g></g><g fill="#2e6417" fill-opacity="1"><g transform="translate(212.497275, 248.755793)"><g><path d="M 0.5 0 C 0.5 -0.90625 0.535156 -1.703125 0.609375 -2.390625 C 0.691406 -3.078125 0.785156 -3.722656 0.890625 -4.328125 C 0.992188 -4.929688 1.085938 -5.546875 1.171875 -6.171875 C 1.253906 -6.804688 1.296875 -7.507812 1.296875 -8.28125 C 1.296875 -9.019531 1.226562 -9.625 1.09375 -10.09375 C 0.96875 -10.5625 0.835938 -10.910156 0.703125 -11.140625 C 0.566406 -11.367188 0.5 -11.484375 0.5 -11.484375 C 0.5 -11.484375 0.625 -11.484375 0.875 -11.484375 C 1.132812 -11.484375 1.460938 -11.484375 1.859375 -11.484375 C 2.265625 -11.484375 2.691406 -11.484375 3.140625 -11.484375 C 3.585938 -11.484375 4.007812 -11.484375 4.40625 -11.484375 C 4.800781 -11.484375 5.128906 -11.484375 5.390625 -11.484375 C 5.648438 -11.484375 5.78125 -11.484375 5.78125 -11.484375 C 7.4375 -11.484375 8.742188 -11.117188 9.703125 -10.390625 C 10.671875 -9.671875 11.15625 -8.628906 11.15625 -7.265625 C 11.15625 -6.597656 11.046875 -6.019531 10.828125 -5.53125 C 10.609375 -5.039062 10.335938 -4.585938 10.015625 -4.171875 C 9.703125 -3.765625 9.382812 -3.359375 9.0625 -2.953125 C 8.75 -2.554688 8.484375 -2.117188 8.265625 -1.640625 C 8.046875 -1.171875 7.9375 -0.625 7.9375 0 L 7.109375 0 C 6.640625 0 6.257812 -0.09375 5.96875 -0.28125 C 5.675781 -0.476562 5.460938 -0.710938 5.328125 -0.984375 C 5.203125 -1.265625 5.140625 -1.546875 5.140625 -1.828125 C 5.140625 -2.265625 5.21875 -2.628906 5.375 -2.921875 C 5.539062 -3.222656 5.742188 -3.503906 5.984375 -3.765625 C 6.234375 -4.035156 6.476562 -4.332031 6.71875 -4.65625 C 6.96875 -4.976562 7.171875 -5.367188 7.328125 -5.828125 C 7.492188 -6.285156 7.578125 -6.863281 7.578125 -7.5625 C 7.578125 -8.570312 7.394531 -9.363281 7.03125 -9.9375 C 6.664062 -10.507812 6.238281 -10.796875 5.75 -10.796875 C 5.289062 -10.796875 4.9375 -10.65625 4.6875 -10.375 C 4.4375 -10.09375 4.257812 -9.710938 4.15625 -9.234375 C 4.0625 -8.753906 4.019531 -8.203125 4.03125 -7.578125 C 4.039062 -6.960938 4.082031 -6.3125 4.15625 -5.625 C 4.226562 -4.945312 4.3125 -4.265625 4.40625 -3.578125 C 4.507812 -2.898438 4.597656 -2.25 4.671875 -1.625 C 4.742188 -1.007812 4.78125 -0.46875 4.78125 0 Z M 0.5 0 "/></g></g></g></svg>